<svg width="123" height="40" viewBox="0 0 123 40" fill="none" xmlns="http://www.w3.org/2000/svg">
  <path
    d="M0 29.0084V26.4884C0.87 22.9084 2.52 17.0184 5.8 14.8784C5.97511 14.7649 6.119 14.6093 6.21857 14.4259C6.31813 14.2425 6.37019 14.0371 6.37 13.8284C6.35667 9.62841 6.45 6.48841 6.65 4.40841C6.8 2.85841 8.49 1.18841 10.15 1.00841C13.3233 0.668412 15.1233 2.15841 15.55 5.47841C15.559 5.53782 15.5832 5.59407 15.6202 5.64141C15.6572 5.68874 15.7056 5.72548 15.7605 5.74785C15.8154 5.77023 15.8749 5.77744 15.9328 5.76875C15.9907 5.76007 16.0449 5.73579 16.09 5.69841C16.2833 5.54508 16.5 5.01175 16.74 4.09841C17.53 1.08841 20.11 -0.711588 23 0.268412C24.0067 0.615079 24.9833 1.60175 25.93 3.22841C26.0024 3.34842 26.0981 3.45272 26.2115 3.53516C26.3248 3.61759 26.4535 3.6765 26.59 3.70841C30.5833 4.58175 31.96 6.85841 30.72 10.5384C30.7055 10.5845 30.7023 10.6334 30.7107 10.6809C30.7191 10.7285 30.7388 10.7734 30.7683 10.8116C30.7977 10.8499 30.836 10.8806 30.8798 10.9009C30.9237 10.9212 30.9717 10.9307 31.02 10.9284C34.68 10.6884 36.59 14.8984 34.93 17.7284C34.7905 17.9676 34.6261 18.189 34.44 18.3884C32.89 20.0284 29.68 22.3484 28.31 24.8884C26.93 27.4584 26.54 30.4984 24.87 33.1684C22.47 37.0217 18.9633 39.2117 14.35 39.7384C12.7367 39.9251 10.5567 39.4217 7.81 38.2284C3.63667 36.4084 1.03333 33.3351 0 29.0084ZM24.46 5.23841C26.03 2.49841 20.69 -1.21159 18.44 3.25841C18.2467 3.64508 16.9733 6.51174 14.62 11.8584C14.5896 11.9226 14.538 11.9743 14.474 12.005C14.41 12.0357 14.3374 12.0436 14.2683 12.0272C14.1993 12.0108 14.1379 11.9712 14.0945 11.915C14.0511 11.8588 14.0284 11.7894 14.03 11.7184L14.36 5.59841C14.4026 4.77952 14.1282 3.97568 13.5938 3.35375C13.0594 2.73181 12.306 2.33956 11.49 2.25841L10.96 2.20841C10.5525 2.16788 10.141 2.21352 9.75212 2.34237C9.36322 2.47123 9.00553 2.68044 8.70213 2.95652C8.39872 3.2326 8.15634 3.56941 7.99062 3.94522C7.82491 4.32104 7.73953 4.72751 7.74 5.13841V14.7684C7.73974 14.9191 7.69656 15.0673 7.6153 15.1962C7.53405 15.3252 7.41794 15.4298 7.28 15.4984C4.16 17.0684 3.4 20.1184 2.18 23.3684C0.0466666 29.0951 1.85667 33.5151 7.61 36.6284C13.0967 39.6017 17.9467 38.9317 22.16 34.6184C25.51 31.1984 25.7 26.3584 28.09 22.8284C29.77 20.3384 37.5 16.4684 32.84 12.6684C32.3717 12.2861 31.7663 12.0873 31.1197 12.1036C30.473 12.1199 29.8221 12.3503 29.27 12.7584C29.2567 12.7651 28.6167 13.3117 27.35 14.3984C27.3065 14.4328 27.2532 14.4525 27.1978 14.4544C27.1423 14.4564 27.0878 14.4406 27.042 14.4093C26.9962 14.378 26.9616 14.3329 26.9432 14.2806C26.9249 14.2283 26.9238 14.1714 26.94 14.1184C27.45 12.6584 30.1 10.2884 29.97 8.23841C29.87 6.69175 28.96 5.65508 27.24 5.12841C26.9028 5.02456 26.5406 5.0351 26.21 5.15841L24.83 5.67841C24.7722 5.70205 24.7089 5.70665 24.6487 5.69158C24.5885 5.67651 24.5344 5.64252 24.4938 5.59428C24.4532 5.54603 24.4282 5.48591 24.4221 5.42218C24.4161 5.35846 24.4293 5.29425 24.46 5.23841Z"
    fill="#FEFFFE" fill-opacity="0.996" />
  <path
    d="M24.83 5.67817L26.21 5.15817C26.5407 5.03486 26.9028 5.02431 27.24 5.12817C28.96 5.65483 29.87 6.6915 29.97 8.23817C30.1 10.2882 27.4501 12.6582 26.9401 14.1182C26.9238 14.1712 26.9249 14.228 26.9433 14.2803C26.9616 14.3327 26.9962 14.3778 27.042 14.409C27.0878 14.4403 27.1424 14.4561 27.1978 14.4542C27.2532 14.4522 27.3066 14.4326 27.35 14.3982C28.6167 13.3115 29.2567 12.7648 29.2701 12.7582C29.8222 12.3501 30.4731 12.1196 31.1197 12.1033C31.7664 12.087 32.3718 12.2858 32.84 12.6682C37.5 16.4682 29.7701 20.3382 28.09 22.8282C25.7001 26.3582 25.51 31.1982 22.16 34.6182C17.9467 38.9315 13.0967 39.6015 7.61005 36.6282C1.85672 33.5148 0.0467157 29.0948 2.18005 23.3682C3.40005 20.1182 4.16005 17.0682 7.28005 15.4982C7.41799 15.4296 7.5341 15.3249 7.61535 15.196C7.69661 15.067 7.73979 14.9189 7.74005 14.7682V5.13817C7.73958 4.72726 7.82496 4.32079 7.99067 3.94498C8.15639 3.56916 8.39877 3.23235 8.70218 2.95628C9.00558 2.6802 9.36327 2.47098 9.75217 2.34213C10.1411 2.21327 10.5525 2.16764 10.96 2.20817L11.49 2.25817C12.306 2.33932 13.0594 2.73157 13.5938 3.3535C14.1282 3.97543 14.4026 4.77927 14.36 5.59817L14.03 11.7182C14.0284 11.7891 14.0512 11.8585 14.0946 11.9147C14.138 11.9709 14.1993 12.0105 14.2684 12.0269C14.3375 12.0433 14.4101 12.0355 14.4741 12.0048C14.5381 11.9741 14.5896 11.9223 14.62 11.8582C16.9734 6.5115 18.2467 3.64483 18.4401 3.25817C20.6901 -1.21183 26.03 2.49817 24.46 5.23817C24.4294 5.29401 24.4161 5.35821 24.4222 5.42194C24.4282 5.48566 24.4533 5.54579 24.4938 5.59403C24.5344 5.64227 24.5885 5.67627 24.6487 5.69133C24.7089 5.7064 24.7723 5.7018 24.83 5.67817ZM12.36 14.5182L12.62 5.51817C12.6309 5.11236 12.4823 4.71772 12.2048 4.4161C11.9274 4.11448 11.5425 3.92901 11.13 3.89817H11.07C10.8723 3.88446 10.6739 3.91005 10.4869 3.97336C10.2999 4.03667 10.1282 4.13639 9.98223 4.26644C9.83628 4.39649 9.71914 4.55414 9.63797 4.7298C9.55679 4.90546 9.51326 5.09544 9.51005 5.28817L9.30005 15.7882L9.06005 19.1482C9.04984 19.3215 8.97371 19.4843 8.84727 19.6033C8.72084 19.7223 8.55368 19.7885 8.38005 19.7882H8.10005C7.94092 19.7882 7.78831 19.7239 7.67579 19.6095C7.56326 19.4951 7.50005 19.3399 7.50005 19.1782V18.0582C7.49936 17.9506 7.46381 17.8468 7.39864 17.7618C7.33347 17.6768 7.24211 17.6153 7.138 17.5862C7.03389 17.5571 6.92253 17.562 6.82029 17.6001C6.71806 17.6383 6.63034 17.7077 6.57005 17.7982C4.78005 20.6282 2.44005 25.7182 3.31005 29.5982C3.67005 31.1848 4.55005 32.4982 5.95005 33.5382C11.41 38.0882 17.8301 37.8182 22.2001 32.0082C24.1 29.4882 24.6 24.3982 26.96 21.6482C28.1334 20.2882 29.8867 18.5882 32.2201 16.5482C32.4159 16.3787 32.5585 16.1527 32.6301 15.8982C32.7967 15.2982 32.6 14.7215 32.0401 14.1682C31.8186 13.9468 31.5248 13.8128 31.2125 13.7907C30.9001 13.7687 30.5904 13.8601 30.34 14.0482L21.8601 20.3682C23.6401 16.2015 25.67 12.4848 27.9501 9.21817C28.4701 8.4715 28.3134 7.71483 27.48 6.94817C27.3569 6.83367 27.2101 6.74759 27.05 6.69598C26.89 6.64437 26.7205 6.6285 26.5537 6.64947C26.3868 6.67045 26.2266 6.72777 26.0843 6.81739C25.942 6.90701 25.8211 7.02675 25.73 7.16817L18.47 18.4782C17.5167 18.2848 17.1834 17.8715 17.47 17.2382C19.2967 13.2648 21.1 9.26817 22.88 5.24817C23.0513 4.86523 23.0712 4.43167 22.9357 4.03466C22.8003 3.63765 22.5196 3.30664 22.15 3.10817L22.1 3.07817C21.9232 2.98019 21.728 2.91999 21.5267 2.9014C21.3254 2.8828 21.1225 2.9062 20.9307 2.97013C20.7389 3.03405 20.5625 3.1371 20.4127 3.27275C20.2628 3.4084 20.1427 3.5737 20.06 3.75817L14.16 16.9682C14.077 17.1529 13.934 17.3042 13.7543 17.3977C13.5746 17.4911 13.3686 17.5212 13.1696 17.483C12.9707 17.4448 12.7904 17.3407 12.658 17.1873C12.5256 17.034 12.4488 16.8405 12.44 16.6382L12.36 14.5182Z"
    fill="black" />
  <path
    d="M3.31058 29.5985C3.67058 31.1851 4.55055 32.4985 5.95055 33.5385C9.53721 31.0585 13.0372 28.5285 16.4505 25.9485C18.9639 24.0485 20.7672 22.1885 21.8605 20.3685C23.6405 16.2019 25.6705 12.4852 27.9505 9.21854C28.4705 8.47188 28.3139 7.71521 27.4805 6.94854C27.3574 6.83405 27.2106 6.74796 27.0505 6.69636C26.8905 6.64475 26.721 6.62887 26.5542 6.64985C26.3873 6.67083 26.2271 6.72815 26.0848 6.81776C25.9425 6.90738 25.8216 7.02712 25.7305 7.16854L18.4706 18.4785C17.5172 18.2851 17.1839 17.8718 17.4706 17.2385C19.2972 13.2651 21.1006 9.26847 22.8806 5.24847C23.0518 4.86553 23.0717 4.43197 22.9363 4.03497C22.8008 3.63796 22.5201 3.30694 22.1506 3.10847L22.1006 3.07847C21.9238 2.98049 21.7285 2.9203 21.5273 2.9017C21.326 2.8831 21.123 2.90651 20.9312 2.97043C20.7395 3.03435 20.5631 3.1374 20.4132 3.27305C20.2633 3.40871 20.1432 3.574 20.0606 3.75847L14.1606 16.9685C14.0775 17.1532 13.9346 17.3045 13.7548 17.398C13.5751 17.4914 13.3691 17.5215 13.1702 17.4833C12.9712 17.4451 12.791 17.341 12.6586 17.1876C12.5262 17.0343 12.4494 16.8408 12.4406 16.6385L12.3606 14.5185L12.6203 5.51861C12.6312 5.11281 12.4825 4.71817 12.2051 4.41655C11.9277 4.11492 11.5428 3.92946 11.1303 3.89861H11.0703C10.8726 3.88491 10.6742 3.91049 10.4872 3.97381C10.3001 4.03712 10.1284 4.13684 9.98248 4.26689C9.83652 4.39694 9.71939 4.55459 9.63821 4.73025C9.55703 4.9059 9.51351 5.09588 9.51029 5.28861L9.30029 15.7886L9.06058 19.1485C9.05037 19.3218 8.97424 19.4846 8.84781 19.6036C8.72137 19.7226 8.55421 19.7888 8.38058 19.7885H8.10058C7.94145 19.7885 7.78884 19.7242 7.67632 19.6098C7.5638 19.4954 7.50058 19.3403 7.50058 19.1785V18.0585C7.49989 17.951 7.46434 17.8471 7.39917 17.7621C7.334 17.6772 7.24264 17.6156 7.13853 17.5865C7.03442 17.5574 6.92306 17.5623 6.82083 17.6004C6.71859 17.6386 6.63087 17.708 6.57058 17.7985C4.78058 20.6285 2.44058 25.7185 3.31058 29.5985Z"
    fill="url(#paint0_linear_118_30805)" />
  <path
    d="M16.4505 25.9485C13.0372 28.5285 9.53721 31.0585 5.95055 33.5385C11.4105 38.0885 17.8307 37.8185 22.2007 32.0085C23.0769 30.8463 23.6554 29.1375 24.2559 27.3637C24.9575 25.2914 25.6891 23.1302 26.9607 21.6485C28.134 20.2885 29.8874 18.5885 32.2207 16.5485C32.4165 16.379 32.5591 16.153 32.6307 15.8985C32.7974 15.2985 32.6007 14.7218 32.0407 14.1685C31.8193 13.9471 31.5254 13.8131 31.2131 13.7911C30.9008 13.769 30.591 13.8604 30.3407 14.0485L21.8605 20.3685C20.7672 22.1885 18.9639 24.0485 16.4505 25.9485Z"
    fill="url(#paint1_linear_118_30805)" />
  <path fill-rule="evenodd" clip-rule="evenodd"
    d="M37.549 20.449C36.2195 20.9124 34.9724 21.9364 34.4368 23.0045C34.2792 23.319 32.994 26.3339 31.5808 29.7045C28.822 36.2846 28.7091 36.6426 29.2697 37.0384C29.6536 37.3096 33.1612 37.3029 33.732 37.0298C34.4243 36.6987 34.854 36.0355 35.7501 33.9157C36.6234 31.8497 37.0265 31.0684 37.353 30.8084C37.4951 30.6953 39.0297 30.6614 44.1078 30.6594C50.2477 30.6571 50.7092 30.6427 51.1435 30.4406C51.399 30.3218 51.723 30.0985 51.8633 29.9446C52.2348 29.5372 52.9442 27.9018 52.9442 27.4529C52.9442 26.6464 53.2428 26.6799 46.0439 26.6799C41.8023 26.6799 39.4908 26.6381 39.3436 26.5587C38.9344 26.3378 39.1624 25.5334 39.7713 25.0505C40.0759 24.809 40.1619 24.806 46.7312 24.806H53.3827L53.9475 24.4253C54.4698 24.0735 54.5555 23.9429 55.0824 22.6978C55.7244 21.1805 55.7804 20.7726 55.3905 20.4543C55.1386 20.2487 54.7167 20.2385 46.6286 20.2421C38.8744 20.2455 38.0806 20.2637 37.549 20.449ZM60.3201 20.4473C59.3961 20.772 58.728 21.223 57.9851 22.0235C57.3027 22.7589 57.267 22.8333 54.9855 28.2668C53.7154 31.2912 52.5798 34.041 52.4617 34.3776C52.0581 35.5287 52.2784 36.4658 53.0604 36.9239C53.4588 37.1574 53.6324 37.1622 61.6056 37.1622H69.7441L70.6294 36.7211C71.6442 36.2155 72.4078 35.4467 72.9291 34.4056C73.233 33.7987 77.1031 24.6387 77.5918 23.37C78.0386 22.2098 77.8064 21.1775 76.9557 20.5419C76.6314 20.2995 76.54 20.2965 68.7651 20.2698C61.5387 20.2448 60.8553 20.2592 60.3201 20.4473ZM81.573 20.6189C80.8663 21.1006 80.7906 21.2494 78.6071 26.4457C75.2128 34.523 75.2102 34.5295 75.1643 35.2882C75.1143 36.1144 75.3561 36.6129 75.9715 36.9515C76.3296 37.1486 76.8772 37.1622 84.4868 37.1622H92.6193L93.3082 36.8369C94.2057 36.4132 94.8597 35.8639 95.3855 35.0921C95.731 34.5849 97.9369 29.4925 100.881 22.405C101.335 21.3123 101.363 20.9691 101.034 20.5469L100.793 20.2383H98.7274C96.3895 20.2383 96.21 20.2947 95.5568 21.2356C95.3786 21.4923 94.2962 23.9253 93.1514 26.6424C92.0065 29.3595 90.9527 31.7423 90.8094 31.9377C90.3022 32.6293 90.1507 32.653 86.2492 32.653C82.2421 32.653 82.2517 32.655 82.3814 31.8374C82.4184 31.6041 83.39 29.1756 84.5407 26.4406C85.9365 23.1228 86.6333 21.328 86.6344 21.047C86.6373 20.2886 86.484 20.2383 84.1712 20.2383H82.1313L81.573 20.6189ZM104.518 20.5202C103.84 20.9847 103.528 21.5183 102.509 23.9495C101.974 25.2257 100.631 28.4045 99.5239 31.0134C97.3336 36.1766 97.2251 36.5495 97.7818 37.0039C98.0439 37.2179 98.217 37.2323 100.115 37.1986C102.154 37.1624 102.167 37.1604 102.588 36.8361C103.126 36.4224 103.42 35.912 104.28 33.8986C105.349 31.3968 105.551 31.2476 107.866 31.2476H109.472L110.078 33.9706C110.605 36.3389 110.722 36.728 110.981 36.9572C111.274 37.2163 111.331 37.2207 114.357 37.2207C117.938 37.2207 118.12 37.1815 118.12 36.4127C118.12 36.1649 117.885 34.9239 117.598 33.655C117.31 32.386 117.075 31.3277 117.075 31.303C117.075 31.2784 117.271 31.2224 117.511 31.1787C118.733 30.956 120.345 29.8103 120.985 28.7096C121.15 28.4258 121.67 27.2909 122.142 26.1874L123 24.1811V22.4383V20.6953L122.506 20.4694C122.033 20.2528 121.657 20.2433 113.471 20.2409L104.93 20.2383L104.518 20.5202ZM70.3451 24.9883C70.5252 25.1154 70.6034 25.2902 70.6034 25.5656C70.6034 25.9947 68.4863 31.0972 68.0024 31.8344C67.481 32.6288 67.3432 32.653 63.3603 32.653C59.8635 32.653 59.8095 32.6494 59.6374 32.4018C59.5253 32.2404 59.4875 32.0205 59.5319 31.7869C59.6039 31.4073 61.3715 27.1274 61.8343 26.2114C62.1341 25.6182 62.619 25.1107 63.0518 24.9373C63.2192 24.8702 64.7712 24.8177 66.7145 24.8134C69.5871 24.807 70.1252 24.833 70.3451 24.9883ZM116.31 24.8771C116.565 24.9756 116.54 25.4893 116.259 25.9549C115.842 26.6438 115.614 26.6801 111.705 26.6783C109.77 26.6774 108.071 26.6453 107.93 26.6071C107.788 26.5689 107.642 26.4417 107.605 26.3244C107.497 25.9826 107.851 25.2994 108.267 25.0433C108.632 24.8191 108.846 24.8068 112.389 24.8064C114.445 24.8062 116.209 24.8379 116.31 24.8771Z"
    fill="#E7FFDE" />
  <path fill-rule="evenodd" clip-rule="evenodd"
    d="M37.549 20.449C36.2195 20.9124 34.9724 21.9364 34.4368 23.0045C34.2792 23.319 32.994 26.3339 31.5808 29.7045C28.822 36.2846 28.7091 36.6426 29.2697 37.0384C29.6536 37.3096 33.1612 37.3029 33.732 37.0298C34.4243 36.6987 34.854 36.0355 35.7501 33.9157C36.6234 31.8497 37.0265 31.0684 37.353 30.8084C37.4951 30.6953 39.0297 30.6614 44.1078 30.6594C50.2477 30.6571 50.7092 30.6427 51.1435 30.4406C51.399 30.3218 51.723 30.0985 51.8633 29.9446C52.2348 29.5372 52.9442 27.9018 52.9442 27.4529C52.9442 26.6464 53.2428 26.6799 46.0439 26.6799C41.8023 26.6799 39.4908 26.6381 39.3436 26.5587C38.9344 26.3378 39.1624 25.5334 39.7713 25.0505C40.0759 24.809 40.1619 24.806 46.7312 24.806H53.3827L53.9475 24.4253C54.4698 24.0735 54.5555 23.9429 55.0824 22.6978C55.7244 21.1805 55.7804 20.7726 55.3905 20.4543C55.1386 20.2487 54.7167 20.2385 46.6286 20.2421C38.8744 20.2455 38.0806 20.2637 37.549 20.449ZM60.3201 20.4473C59.3961 20.772 58.728 21.223 57.9851 22.0235C57.3027 22.7589 57.267 22.8333 54.9855 28.2668C53.7154 31.2912 52.5798 34.041 52.4617 34.3776C52.0581 35.5287 52.2784 36.4658 53.0604 36.9239C53.4588 37.1574 53.6324 37.1622 61.6056 37.1622H69.7441L70.6294 36.7211C71.6442 36.2155 72.4078 35.4467 72.9291 34.4056C73.233 33.7987 77.1031 24.6387 77.5918 23.37C78.0386 22.2098 77.8064 21.1775 76.9557 20.5419C76.6314 20.2995 76.54 20.2965 68.7651 20.2698C61.5387 20.2448 60.8553 20.2592 60.3201 20.4473ZM81.573 20.6189C80.8663 21.1006 80.7906 21.2494 78.6071 26.4457C75.2128 34.523 75.2102 34.5295 75.1643 35.2882C75.1143 36.1144 75.3561 36.6129 75.9715 36.9515C76.3296 37.1486 76.8772 37.1622 84.4868 37.1622H92.6193L93.3082 36.8369C94.2057 36.4132 94.8597 35.8639 95.3855 35.0921C95.731 34.5849 97.9369 29.4925 100.881 22.405C101.335 21.3123 101.363 20.9691 101.034 20.5469L100.793 20.2383H98.7274C96.3895 20.2383 96.21 20.2947 95.5568 21.2356C95.3786 21.4923 94.2962 23.9253 93.1514 26.6424C92.0065 29.3595 90.9527 31.7423 90.8094 31.9377C90.3022 32.6293 90.1507 32.653 86.2492 32.653C82.2421 32.653 82.2517 32.655 82.3814 31.8374C82.4184 31.6041 83.39 29.1756 84.5407 26.4406C85.9365 23.1228 86.6333 21.328 86.6344 21.047C86.6373 20.2886 86.484 20.2383 84.1712 20.2383H82.1313L81.573 20.6189ZM104.518 20.5202C103.84 20.9847 103.528 21.5183 102.509 23.9495C101.974 25.2257 100.631 28.4045 99.5239 31.0134C97.3336 36.1766 97.2251 36.5495 97.7818 37.0039C98.0439 37.2179 98.217 37.2323 100.115 37.1986C102.154 37.1624 102.167 37.1604 102.588 36.8361C103.126 36.4224 103.42 35.912 104.28 33.8986C105.349 31.3968 105.551 31.2476 107.866 31.2476H109.472L110.078 33.9706C110.605 36.3389 110.722 36.728 110.981 36.9572C111.274 37.2163 111.331 37.2207 114.357 37.2207C117.938 37.2207 118.12 37.1815 118.12 36.4127C118.12 36.1649 117.885 34.9239 117.598 33.655C117.31 32.386 117.075 31.3277 117.075 31.303C117.075 31.2784 117.271 31.2224 117.511 31.1787C118.733 30.956 120.345 29.8103 120.985 28.7096C121.15 28.4258 121.67 27.2909 122.142 26.1874L123 24.1811V22.4383V20.6953L122.506 20.4694C122.033 20.2528 121.657 20.2433 113.471 20.2409L104.93 20.2383L104.518 20.5202ZM70.3451 24.9883C70.5252 25.1154 70.6034 25.2902 70.6034 25.5656C70.6034 25.9947 68.4863 31.0972 68.0024 31.8344C67.481 32.6288 67.3432 32.653 63.3603 32.653C59.8635 32.653 59.8095 32.6494 59.6374 32.4018C59.5253 32.2404 59.4875 32.0205 59.5319 31.7869C59.6039 31.4073 61.3715 27.1274 61.8343 26.2114C62.1341 25.6182 62.619 25.1107 63.0518 24.9373C63.2192 24.8702 64.7712 24.8177 66.7145 24.8134C69.5871 24.807 70.1252 24.833 70.3451 24.9883ZM116.31 24.8771C116.565 24.9756 116.54 25.4893 116.259 25.9549C115.842 26.6438 115.614 26.6801 111.705 26.6783C109.77 26.6774 108.071 26.6453 107.93 26.6071C107.788 26.5689 107.642 26.4417 107.605 26.3244C107.497 25.9826 107.851 25.2994 108.267 25.0433C108.632 24.8191 108.846 24.8068 112.389 24.8064C114.445 24.8062 116.209 24.8379 116.31 24.8771Z"
    fill="white" />
  <defs>
    <linearGradient id="paint0_linear_118_30805" x1="12.0005" y1="6.5" x2="17.9055" y2="36.6879"
      gradientUnits="userSpaceOnUse">
      <stop stop-color="#73F857" />
      <stop offset="1" stop-color="#25D6D9" />
    </linearGradient>
    <linearGradient id="paint1_linear_118_30805" x1="12.0005" y1="6.5" x2="17.9055" y2="36.6879"
      gradientUnits="userSpaceOnUse">
      <stop stop-color="#73F857" />
      <stop offset="1" stop-color="#25D6D9" />
    </linearGradient>
  </defs>
</svg>